<svg xmlns="http://www.w3.org/2000/svg" viewBox="0 0 1800 1000" fill="none" preserveAspectRatio="xMidYMid slice">
  <defs>
    <filter id="graphite" x="-12%" y="-12%" width="124%" height="124%">
      <feTurbulence type="fractalNoise" baseFrequency="0.012 0.1" numOctaves="2" seed="31" result="grain"/>
      <feDisplacementMap in="SourceGraphic" in2="grain" scale="1.05" xChannelSelector="R" yChannelSelector="B"/>
    </filter>
    <filter id="red-pencil" x="-12%" y="-12%" width="124%" height="124%">
      <feTurbulence type="fractalNoise" baseFrequency="0.01 0.085" numOctaves="2" seed="11" result="grain"/>
      <feDisplacementMap in="SourceGraphic" in2="grain" scale="0.72"/>
    </filter>
  </defs>

  <!-- Large, cropped evidence artifacts frame a deliberately quiet working area. -->
  <g stroke="#4b4942" stroke-linecap="round" stroke-linejoin="round" filter="url(#graphite)" opacity=".145">
    <!-- Upper-left source ledger. -->
    <g transform="translate(-104 86) rotate(-5 212 146)">
      <path d="M38 48 418 18l28 258-381 33Z"/>
      <path d="M48 59 427 29l28 257-380 34Z" opacity=".38"/>
      <path d="M90 99h210M91 108h164" opacity=".72"/>
      <path d="M90 155h238M90 187h205M90 219h244M90 251h185" opacity=".58"/>
      <path d="M70 148h7M70 180h7M70 212h7M70 244h7" stroke-width="2"/>
      <path d="M330 92h63v63h-63Z"/>
      <path d="m344 124 13 12 25-31" stroke-width="1.5"/>
      <path d="M351 4c-5-28 10-47 31-42 21 6 28 34 13 54l-31 42c-10 14-31 10-35-5-3-10 2-21 11-30l27-30c6-7 16-3 18 6 1 6-1 11-6 16l-23 24" stroke-width="1.4"/>
    </g>
    <g font-family="Noto Serif SC, STSong, serif" fill="#4b4942" stroke="none" opacity=".76" transform="translate(-104 86) rotate(-5 212 146)">
      <text x="90" y="139" font-size="17" letter-spacing="3">来源已核</text>
      <text x="91" y="282" font-family="Cascadia Mono, Consolas, monospace" font-size="10" letter-spacing="2.4">SOURCE LOG / 001</text>
    </g>

    <!-- Lower-left conflict record. -->
    <g transform="translate(-76 684) rotate(4 202 126)">
      <path d="M28 28h391v236H28Z"/>
      <path d="M40 40h391v236" opacity=".34"/>
      <path d="M80 82h180M80 91h133"/>
      <path d="M80 134h238M80 168h204M80 202h225" opacity=".62"/>
      <path d="M57 127h11v11H57ZM57 161h11v11H57ZM57 195h11v11H57Z"/>
      <path d="m58 131 5 5 10-13" stroke-width="1.3"/>
      <path d="M326 104c30 14 47 38 49 72m0 0-12-18m12 18 13-18" opacity=".7"/>
      <circle cx="344" cy="221" r="30"/>
      <circle cx="344" cy="221" r="20" opacity=".5"/>
      <path d="m366 243 28 27" stroke-width="1.5"/>
    </g>
    <g font-family="Noto Serif SC, STSong, serif" fill="#4b4942" stroke="none" opacity=".72" transform="translate(-76 684) rotate(4 202 126)">
      <text x="80" y="119" font-size="17" letter-spacing="3">冲突记录</text>
      <text x="80" y="238" font-family="Cascadia Mono, Consolas, monospace" font-size="9" letter-spacing="2.2">CONFLICT / OPEN</text>
    </g>

    <!-- Upper-right verification slip. -->
    <g transform="translate(1512 72) rotate(6 190 137)">
      <path d="M20 38h384v244H20Z"/>
      <path d="M31 49h384v244" opacity=".34"/>
      <path d="M72 88h188M72 97h147"/>
      <path d="M72 146h244M72 180h207M72 214h236" opacity=".62"/>
      <path d="M48 139h7M48 173h7M48 207h7" stroke-width="2"/>
      <path d="M292 71h68v68h-68Z"/>
      <path d="m307 104 13 12 26-32" stroke-width="1.5"/>
      <path d="M89 5c-4-25 10-42 29-37 19 5 25 30 12 48l-29 39c-10 12-28 9-32-5-3-9 2-19 10-27l25-28" stroke-width="1.4"/>
    </g>
    <g font-family="Noto Serif SC, STSong, serif" fill="#4b4942" stroke="none" opacity=".74" transform="translate(1512 72) rotate(6 190 137)">
      <text x="72" y="132" font-size="17" letter-spacing="3">核对摘录</text>
      <text x="72" y="250" font-family="Cascadia Mono, Consolas, monospace" font-size="9" letter-spacing="2.2">SOURCE / VERIFIED</text>
    </g>

    <!-- Lower-right hypothesis card. -->
    <g transform="translate(1480 674) rotate(-4 208 132)">
      <path d="M22 24h411v250H22Z"/>
      <path d="M34 36h411v250" opacity=".34"/>
      <path d="M77 79h192M77 88h148"/>
      <path d="M77 136h254M77 168h216" opacity=".62"/>
      <path d="M107 221h43v27h-43ZM194 221h43v27h-43ZM281 221h43v27h-43Z"/>
      <path d="M216 184v24m0 0-88 13m88-13 87 13"/>
      <path d="m349 147 33 7m-14-19 14 19-21 6" opacity=".72"/>
    </g>
    <g font-family="Noto Serif SC, STSong, serif" fill="#4b4942" stroke="none" opacity=".72" transform="translate(1480 674) rotate(-4 208 132)">
      <text x="77" y="122" font-size="17" letter-spacing="3">待证假设</text>
      <text x="77" y="197" font-family="Cascadia Mono, Consolas, monospace" font-size="9" letter-spacing="2.2">HYPOTHESIS / 03</text>
    </g>

    <!-- Sparse registration marks keep the field tactile without filling it. -->
    <path d="M326 96h92M372 50v92M1382 878h92M1428 832v92" opacity=".26"/>
    <path d="M20 598c102-15 198-11 286 14M1492 398c91-14 185-10 286 16" opacity=".28"/>
  </g>

  <!-- One interrupted evidence route: visible at the edges, absent beneath the task sheet. -->
  <g stroke="#a92609" stroke-linecap="round" stroke-linejoin="round" filter="url(#red-pencil)" opacity=".175">
    <path d="M-18 402c78 8 137 37 181 88 37 42 86 64 149 65"/>
    <path d="M-12 409c72 10 128 38 170 85" opacity=".45"/>
    <circle cx="18" cy="407" r="6"/>
    <circle cx="163" cy="490" r="6"/>
    <circle cx="311" cy="555" r="6"/>
    <path d="M1482 498c54-8 105-35 152-81 43-41 103-65 184-71" stroke-dasharray="14 12"/>
    <circle cx="1482" cy="498" r="6"/>
    <circle cx="1634" cy="417" r="6"/>
    <circle cx="1788" cy="349" r="6"/>
    <path d="M1530 562h226v70H1530Z"/>
    <path d="M1540 572h226v70" opacity=".42"/>
  </g>
  <g font-family="Noto Serif SC, STSong, serif" fill="#a92609" opacity=".16" transform="rotate(-3 1640 606)">
    <text x="1556" y="612" font-size="18" letter-spacing="3">证据路径 · 待续</text>
  </g>
</svg>
